<svg version="1.2" baseProfile="tiny-ps" xmlns="http://www.w3.org/2000/svg" viewBox="0 0 1500 1500" width="1500" height="1500">
	<title>2456048-ai</title>
	<defs>
		<linearGradient id="grd1" gradientUnits="userSpaceOnUse"  x1="597.884" y1="1084.028" x2="597.884" y2="1011.865">
			<stop offset="0" stop-color="#ffffff"  />
			<stop offset="1" stop-color="#ffffff" stop-opacity="0" />
		</linearGradient>
	</defs>
	<style>
		tspan { white-space:pre }
		.shp0 { fill: #b5dfea } 
		.shp1 { opacity: 0.549;fill: #90cedd } 
		.shp2 { fill: #79c9e8 } 
		.shp3 { fill: #d7f0f9 } 
		.shp4 { fill: #0582c1 } 
		.shp5 { fill: #ffffff } 
		.shp6 { fill: #ffbf4d } 
		.shp7 { fill: #00668e } 
		.shp8 { fill: #05556d } 
		.shp9 { fill: #f98d3d } 
		.shp10 { fill: #ed701b } 
		.shp11 { fill: #efaa3a } 
		.shp12 { opacity: 0.29;mix-blend-mode: multiply;fill: #f98d2b } 
		.shp13 { fill: #49b4d6 } 
		.shp14 { fill: #ff9f50 } 
		.shp15 { fill: #f77e2d } 
		.shp16 { opacity: 0.549;mix-blend-mode: overlay;fill: url(#grd1) } 
	</style>
	<g id="OBJECTS">
		<g id="&lt;Group&gt;">
			<g id="&lt;Group&gt;">
				<path id="&lt;Path&gt;" class="shp0" d="M1359.17 1180.67C1380.03 1180.67 1397.05 1163.95 1397.37 1143.1C1398.96 1039.16 1407.34 885.86 1211.6 843.46C1053.21 809.15 1147.12 527.65 720.54 545.84C414.32 558.9 495.67 817 257.58 838.5C99.15 852.8 97.78 1053.17 103.86 1144.98C105.2 1165.07 121.86 1180.67 141.98 1180.67L1359.17 1180.67Z" />
				<g id="&lt;Group&gt;">
					<path id="&lt;Path&gt;" class="shp1" d="M1211.6 843.46C1053.21 809.15 1147.12 527.65 720.54 545.84C647.7 548.95 596.83 565.93 558.33 590.28C571.3 588.58 585.06 587.38 599.73 586.76C1026.32 568.57 932.4 850.06 1090.8 884.37C1284.45 926.32 1278.32 1076.82 1276.62 1180.67L1359.17 1180.67C1380.03 1180.67 1397.05 1163.95 1397.37 1143.1C1398.96 1039.16 1407.34 885.86 1211.6 843.46Z" />
				</g>
				<g id="&lt;Group&gt;">
					<path id="&lt;Path&gt;" class="shp2" d="M533.31 0L533.31 491.4L540.05 491.4L540.05 0L533.31 0Z" />
					<path id="&lt;Path&gt;" class="shp2" d="M1016.23 0L1016.23 566.88L1022.97 566.88L1022.97 0L1016.23 0Z" />
					<g id="&lt;Group&gt;">
						<path id="&lt;Path&gt;" class="shp3" d="M1022.32 533.84L521.48 475.38C500.08 472.88 480.7 488.21 478.2 509.61L440.82 829.88C438.32 851.28 453.65 870.66 475.05 873.15L975.89 931.61C997.3 934.11 1016.67 918.79 1019.17 897.38L1056.55 577.12C1059.05 555.71 1043.73 536.34 1022.32 533.84Z" />
						<path id="&lt;Path&gt;" class="shp4" d="M1052.85 608.82L1056.55 577.12C1059.05 555.71 1043.73 536.34 1022.32 533.84L521.48 475.38C500.08 472.88 480.7 488.21 478.2 509.61L474.5 541.31L1052.85 608.82Z" />
						<g id="&lt;Group&gt;">
							<path id="&lt;Compound Path&gt;" fill-rule="evenodd" class="shp2" d="M555.53 735.24L619.02 623.38C623.09 616.21 631.05 612.17 639.23 613.13C650.48 614.44 658.54 624.63 657.23 635.88L644.02 749.03L644.59 749.09C652.38 750 657.96 757.06 657.05 764.85C656.14 772.65 649.09 778.23 641.29 777.32L640.73 777.25L638.32 797.86C637.34 806.28 629.72 812.31 621.3 811.32C612.88 810.34 606.85 802.72 607.84 794.3L610.24 773.7L564.53 768.36C556.73 767.45 551.14 760.38 552.05 752.57L553.26 742.19C553.54 739.74 554.32 737.38 555.53 735.24ZM613.75 743.6L621.94 673.43C622 672.95 621.35 672.73 621.11 673.16L583.6 739.35C582.93 740.52 583.68 741.98 585.01 742.14L611.67 745.25C612.7 745.37 613.63 744.63 613.75 743.6Z" />
							<path id="&lt;Compound Path&gt;" fill-rule="evenodd" class="shp2" d="M835.72 767.94L899.21 656.08C903.28 648.92 911.24 644.88 919.42 645.83C930.68 647.15 938.73 657.33 937.42 668.58L924.21 781.73L924.78 781.8C932.57 782.71 938.15 789.76 937.24 797.56C936.33 805.35 929.28 810.93 921.48 810.02L920.92 809.96L918.51 830.57C917.53 838.98 909.91 845.01 901.49 844.03C893.07 843.05 887.04 835.43 888.03 827.01L890.43 806.4L844.72 801.07C836.92 800.15 831.33 793.09 832.24 785.28L833.45 774.89C833.73 772.45 834.51 770.08 835.72 767.94ZM893.94 776.31L902.13 706.14C902.19 705.65 901.54 705.44 901.3 705.86L863.79 772.05C863.12 773.22 863.87 774.69 865.2 774.84L891.86 777.95C892.89 778.07 893.82 777.34 893.94 776.31Z" />
							<path id="&lt;Compound Path&gt;" fill-rule="evenodd" class="shp2" d="M709.76 669.43C713.45 637.82 732.22 621.69 762.7 625.25C793.19 628.81 807.74 648.82 804.05 680.44L792.05 783.19C788.36 814.8 769.6 830.92 739.11 827.37C708.63 823.81 694.08 803.8 697.77 772.18L709.76 669.43ZM728.59 777.78C726.94 791.9 732.53 797.98 742.41 799.14C752.29 800.29 759.12 795.65 760.77 781.54L773.23 674.84C774.87 660.72 769.29 654.63 759.41 653.48C749.53 652.33 742.69 656.97 741.05 671.08L728.59 777.78Z" />
						</g>
						<g id="&lt;Group&gt;">
							<path id="&lt;Path&gt;" class="shp5" d="M533.54 519.64C532.87 525.39 527.67 529.51 521.91 528.84C516.16 528.17 512.04 522.96 512.71 517.21C513.38 511.45 518.59 507.34 524.34 508.01C530.1 508.68 534.22 513.89 533.54 519.64Z" />
							<path id="&lt;Path&gt;" class="shp2" d="M583.78 525.5C583.11 531.25 577.9 535.37 572.15 534.7C566.4 534.03 562.28 528.82 562.95 523.07C563.62 517.32 568.83 513.2 574.58 513.87C580.34 514.54 584.45 519.75 583.78 525.5Z" />
							<path id="&lt;Path&gt;" class="shp6" d="M635.86 531.58C635.19 537.33 629.98 541.45 624.23 540.78C618.48 540.11 614.36 534.9 615.03 529.15C615.7 523.4 620.91 519.28 626.66 519.95C632.41 520.62 636.53 525.83 635.86 531.58Z" />
						</g>
					</g>
				</g>
				<g id="&lt;Group&gt;">
					<path id="&lt;Path&gt;" class="shp7" d="M434.38 896.37C429.87 916.37 427.99 936.59 428.74 957.04C429.41 975.34 428.66 1044.65 426.49 1164.97L448.53 1164.97C469.45 1070.74 480.3 1019.9 481.08 1012.46C481.87 1005.01 487.52 964.08 498.04 889.67L434.38 896.37Z" />
					<path id="&lt;Path&gt;" class="shp4" d="M449.04 888.14C452.42 913.85 456.99 935.84 462.74 954.11C468.49 972.37 485.5 1042.66 513.76 1164.97L535.8 1164.97C533.1 1070.74 531.24 1019.9 530.22 1012.46C529.21 1005.01 524.98 964.08 517.54 889.67L449.04 888.14Z" />
					<path id="&lt;Path&gt;" class="shp4" d="M515.56 1164.93L515.56 1180.32L557.52 1180.32C559.91 1180.32 560.84 1177.23 558.85 1175.9C552.72 1171.82 542.89 1166.19 533.75 1164.93L515.56 1164.93Z" />
					<path id="&lt;Path&gt;" class="shp4" d="M427.61 1164.93L427.61 1180.32L469.57 1180.32C471.96 1180.32 472.89 1177.23 470.9 1175.9C464.77 1171.82 454.94 1166.19 445.8 1164.93L427.61 1164.93Z" />
					<g id="&lt;Group&gt;">
						<path id="&lt;Path&gt;" class="shp7" d="M503.32 708.76C512.94 694.15 512.23 686.14 501.18 684.71C492.7 683.62 486.72 684.33 483.23 686.86C473.46 685.78 465.91 687.56 460.56 692.19C455.07 696.96 434.9 733.89 467.51 747.25C489.25 756.16 497.8 749.21 493.17 726.4L503.32 708.76Z" />
						<path id="&lt;Path&gt;" class="shp8" d="M501.18 684.71C492.7 683.62 486.72 684.33 483.23 686.86C473.46 685.78 465.91 687.56 460.56 692.19C455.07 696.96 434.9 733.89 467.51 747.25C482.84 753.53 489.42 749.3 492.1 743.05C461.16 751.76 457.81 714.47 462.91 703.86C466.36 696.67 472.24 694.74 480.53 698.06C485.4 685.81 501.25 687.14 507.79 688.09C506.6 686.39 504.53 685.14 501.18 684.71Z" />
						<path id="&lt;Path&gt;" class="shp9" d="M483.01 719.46C480.16 716.6 477.67 716.6 475.53 719.46C472.32 723.73 474.46 733.35 479.8 733.89C478.73 743.15 474.64 747.61 467.51 747.25L467.51 758.48L492.63 758.48L492.63 749.92C502.97 745.65 507.96 739.23 507.6 730.68C507.24 722.13 505.82 714.82 503.32 708.76C497.62 715.18 490.85 718.74 483.01 719.46Z" />
						<path id="&lt;Path&gt;" class="shp10" d="M486.86 753.52C489.34 754.55 488.91 756.12 489.02 758.48L492.63 758.48L492.63 749.92C488.57 751.21 483.57 750.17 477.63 746.78C481.09 750.15 484.16 752.4 486.86 753.52Z" />
					</g>
					<path id="&lt;Path&gt;" class="shp9" d="M492 699C483.32 695.54 478.47 695.11 477.45 697.7C476.46 700.25 478.99 702.44 482.47 704.66L479.4 705.16C478.72 705.27 478.47 706.14 479.01 706.58C479.87 707.27 482.23 707.73 487.15 707.9L492 699Z" />
					<g id="&lt;Group&gt;">
						<path id="&lt;Compound Path&gt;" fill-rule="evenodd" class="shp6" d="M585.71 738.31C578.98 745.88 560.15 769.99 520.72 801.2L521.89 910.47L521.21 910.62C496.51 915.86 449.85 912.17 435.29 910.82C433.39 910.64 431.91 910.5 430.83 910.38L430.88 909.76L430.83 909.85L425.82 902.49L380.53 835.89C398.45 807.78 412.69 787.67 423.23 775.53C435.03 761.98 448.42 756.1 463.42 757.88L494.59 758.06C497.02 758.1 499.4 757.62 501.59 756.62C511.78 751.98 541.86 738.2 544.25 736.1C546.96 733.73 527.79 724.59 486.75 708.68L492.33 698.5C537.55 708.31 568.43 719.35 584.99 731.61C587.15 733.23 587.48 736.3 585.71 738.31ZM433.68 871.45L437.88 814.06L414.53 840.22L428.6 870.97L433.02 880.62L433.68 871.45Z" />
					</g>
					<path id="&lt;Path&gt;" class="shp11" d="M428.6 870.97L433.02 880.62L430.88 909.76L430.83 909.85L425.82 902.49L428.6 870.97Z" />
					<path id="&lt;Path&gt;" class="shp12" d="M510.19 797.27C505.99 800.32 507.05 827.34 506.02 844.24C504.28 872.53 502.59 897.01 503.84 912.8C510.23 912.38 516.18 911.69 521.21 910.62L521.89 910.47L520.72 801.2C560.15 769.99 578.98 745.88 585.71 738.31C587.48 736.3 587.15 733.23 584.99 731.61C564.21 754.27 539.27 776.16 510.19 797.27Z" />
					<path id="&lt;Path&gt;" class="shp7" d="M530.22 1012.46C529.12 1004.4 523.01 944.04 519.68 911.05L503.84 912.8C519.25 1039.46 527.46 1123.52 528.47 1164.97L535.8 1164.97C533.1 1070.73 531.24 1019.9 530.22 1012.46Z" />
					<g id="&lt;Group&gt;">
						<path id="&lt;Path&gt;" class="shp4" d="M428.64 722.57L423.87 714.01C426.26 709.49 427.63 704.35 427.63 698.89C427.63 681.02 413.15 666.54 395.29 666.54C377.42 666.54 362.94 681.02 362.94 698.89C362.94 716.75 377.42 731.23 395.29 731.23C404.28 731.23 412.41 727.55 418.27 721.63L428.64 722.57Z" />
						<g id="&lt;Group&gt;">
							<path id="&lt;Compound Path&gt;" class="shp5" d="M378.46 695.96L379.72 695.96L379.72 700.47C379.72 701.85 380.13 702.45 381.1 702.45C381.86 702.45 382.39 702.07 383.09 701.2L383.09 695.96L384.34 695.96L384.34 703.34L383.3 703.34L383.2 702.19L383.15 702.19C382.47 702.99 381.74 703.52 380.72 703.52C379.16 703.52 378.46 702.52 378.46 700.64L378.46 695.96Z" />
							<path id="&lt;Compound Path&gt;" fill-rule="evenodd" class="shp5" d="M389.59 703.96L389.59 706.45L388.34 706.45L388.34 695.96L389.37 695.96L389.48 696.81L389.52 696.81C390.19 696.25 391.01 695.78 391.88 695.78C393.77 695.78 394.79 697.25 394.79 699.55C394.79 702.05 393.29 703.52 391.6 703.52C390.92 703.52 390.24 703.2 389.55 702.67L389.59 703.96ZM391.39 702.48C392.61 702.48 393.5 701.37 393.5 699.55C393.5 697.92 392.95 696.83 391.56 696.83C390.94 696.83 390.31 697.18 389.59 697.83L389.59 701.7C390.25 702.26 390.91 702.48 391.39 702.48Z" />
							<path id="&lt;Compound Path&gt;" class="shp5" d="M398.08 701.67C398.72 702.19 399.37 702.55 400.25 702.55C401.22 702.55 401.71 702.03 401.71 701.4C401.71 700.64 400.83 700.31 400.02 700C398.98 699.62 397.82 699.12 397.82 697.88C397.82 696.69 398.77 695.78 400.36 695.78C401.28 695.78 402.09 696.16 402.65 696.62L402.06 697.41C401.56 697.03 401.03 696.75 400.37 696.75C399.45 696.75 399.02 697.25 399.02 697.82C399.02 698.5 399.83 698.77 400.66 699.09C401.72 699.48 402.91 699.93 402.91 701.32C402.91 702.52 401.95 703.52 400.21 703.52C399.16 703.52 398.16 703.08 397.46 702.51L398.08 701.67Z" />
							<path id="&lt;Compound Path&gt;" class="shp5" d="M406.81 701.61C407.29 701.61 407.7 702.01 407.7 702.58C407.7 703.13 407.29 703.52 406.81 703.52C406.31 703.52 405.9 703.13 405.9 702.58C405.9 702.01 406.31 701.61 406.81 701.61Z" />
							<path id="&lt;Compound Path&gt;" class="shp5" d="M412.1 701.61C412.59 701.61 413 702.01 413 702.58C413 703.13 412.59 703.52 412.1 703.52C411.6 703.52 411.19 703.13 411.19 702.58C411.19 702.01 411.6 701.61 412.1 701.61Z" />
						</g>
					</g>
				</g>
				<g id="&lt;Group&gt;">
					<g id="&lt;Group&gt;">
						<g id="&lt;Group&gt;">
							<path id="&lt;Path&gt;" class="shp2" d="M304.64 1111.48C300.11 1107.25 299.36 1097.11 302.4 1081.07C306.96 1056.99 318.53 1033.88 312.85 1007.76C307.18 981.65 262.68 915.8 262.53 911.42C262.38 907.04 248.8 988.02 271.81 1019.92C294.83 1051.83 297.6 1062.89 296.57 1079.67C295.55 1096.45 296.81 1109.96 299.33 1113.86L304.64 1111.48Z" />
							<path id="&lt;Path&gt;" class="shp13" d="M300.42 1063.07C297.75 1073.81 296.13 1100.73 300.41 1107.18C300.81 1107.78 301.38 1107.44 302.1 1106.32C300.79 1101.87 299.94 1094.07 302.4 1081.07C306.96 1056.99 318.53 1033.88 312.85 1007.76C307.18 981.65 262.68 915.8 262.53 911.42C267 947.99 276.76 978.87 291.82 1004.04C307.99 1031.08 303.1 1052.33 300.42 1063.07Z" />
						</g>
						<g id="&lt;Group&gt;">
							<path id="&lt;Path&gt;" class="shp2" d="M312.75 1109.81C304.03 1088.05 307.06 1067.75 321.83 1048.91C343.99 1020.65 379.42 984.36 380.13 969.99C386.2 1015.49 379.62 1044.68 360.4 1057.56C331.56 1076.88 311.33 1079.96 316.33 1109.69L312.75 1109.81Z" />
							<path id="&lt;Path&gt;" class="shp13" d="M343.88 1043.84C311.72 1067.24 309.09 1094.21 314.08 1106.71C314.47 1107.68 315.2 1108.28 316.17 1108.59C311.86 1079.9 331.92 1076.64 360.4 1057.56C379.62 1044.68 386.2 1015.49 380.13 969.99C377.4 1003.62 365.31 1028.24 343.88 1043.84Z" />
						</g>
						<g id="&lt;Group&gt;">
							<path id="&lt;Path&gt;" class="shp2" d="M291.25 1110.55C294.05 1099.02 294.7 1087.04 293.21 1074.6C290.98 1055.94 271.49 1045.45 253.28 1025.74C243.91 1015.6 241.13 961.98 246.94 956.99C225.51 982.97 216.44 1005.47 219.75 1024.49C224.71 1053.02 277.16 1071.56 282.02 1085.35C285.26 1094.54 286.74 1102.99 286.47 1110.71L291.25 1110.55Z" />
							<g id="&lt;Group&gt;">
								<path id="&lt;Path&gt;" class="shp13" d="M236.08 972.33C225.45 1001.11 236.34 1035.96 271.65 1057.61C288.97 1068.24 294.88 1084.6 289.36 1106.69L293.6 1093.62C293.98 1087.96 294.02 1081.38 293.21 1074.6C290.98 1055.94 271.49 1045.45 253.28 1025.74C244.24 1015.96 241.34 965.74 246.36 957.72C244.89 959.57 240.73 964.97 236.08 972.33Z" />
								<path id="&lt;Path&gt;" class="shp13" d="M246.36 957.72C246.6 957.41 246.8 957.17 246.94 956.99C246.74 957.17 246.55 957.42 246.36 957.72Z" />
							</g>
						</g>
						<g id="&lt;Group&gt;">
							<path id="&lt;Path&gt;" class="shp2" d="M319.48 1108.39C324.5 1089.74 333.23 1079.17 345.65 1076.66C364.29 1072.9 385.7 1045.35 386.85 1039.95C384.76 1074.58 362.3 1097.39 319.48 1108.39Z" />
							<path id="&lt;Path&gt;" class="shp13" d="M344.59 1085.9C333.17 1091.61 328.42 1099.29 326.73 1106.27C364.86 1094.01 384.9 1071.9 386.85 1039.95C386.62 1041.02 385.58 1042.97 383.95 1045.41C378.34 1055.24 364.76 1075.82 344.59 1085.9Z" />
						</g>
					</g>
					<path id="&lt;Path&gt;" class="shp6" d="M359.81 1098.09L262.33 1098.09L273.9 1170.9C274.78 1176.42 279.54 1180.49 285.14 1180.49L337 1180.49C342.59 1180.49 347.36 1176.42 348.23 1170.9L359.81 1098.09Z" />
					<path id="&lt;Path&gt;" class="shp14" d="M357.9 1110.14L359.81 1098.09L262.33 1098.09L264.24 1110.14L357.9 1110.14Z" />
					<path id="&lt;Path&gt;" class="shp14" d="M336.19 1098.09L324.62 1170.9C323.74 1176.42 318.98 1180.49 313.39 1180.49L337 1180.49C342.59 1180.49 347.36 1176.42 348.23 1170.9L359.81 1098.09L336.19 1098.09Z" />
				</g>
				<g id="&lt;Group&gt;">
					<path id="&lt;Path&gt;" class="shp6" d="M1032.2 968.24L1032.2 1057.82L591.61 1057.82L591.61 968.24L1032.2 968.24Z" />
					<path id="&lt;Path&gt;" class="shp12" d="M1032.2 968.24L1032.2 989.99L591.61 989.99L591.61 968.24L1032.2 968.24Z" />
					<path id="&lt;Path&gt;" class="shp15" d="M629.91 968.24L670.13 968.24L659.35 989.99L619.11 989.99L629.91 968.24Z" />
					<path id="&lt;Path&gt;" class="shp15" d="M720.51 968.24L760.73 968.24L749.95 989.99L709.73 989.99L720.51 968.24Z" />
					<path id="&lt;Path&gt;" class="shp15" d="M811.11 968.24L851.32 968.24L840.55 989.99L800.33 989.99L811.11 968.24Z" />
					<path id="&lt;Path&gt;" class="shp15" d="M901.71 968.24L941.9 968.24L931.12 989.99L890.93 989.99L901.71 968.24Z" />
					<path id="&lt;Path&gt;" class="shp15" d="M1032.2 968.24L1032.2 968.85L1021.7 989.99L981.53 989.99L992.31 968.24L1032.2 968.24Z" />
					<path id="&lt;Path&gt;" class="shp2" d="M677.51 1057.83L646.45 1057.83L646.45 1180.32L677.51 1180.32L677.51 1057.83Z" />
					<path id="&lt;Path&gt;" class="shp13" d="M677.51 1057.83L670.46 1057.83L670.46 1180.32L677.51 1180.32L677.51 1057.83Z" />
					<path id="&lt;Path&gt;" class="shp2" d="M979.76 1057.83L948.71 1057.83L948.71 1180.32L979.76 1180.32L979.76 1057.83Z" />
					<path id="&lt;Path&gt;" class="shp13" d="M979.76 1057.83L970.58 1057.83L970.58 1180.32L979.76 1180.32L979.76 1057.83Z" />
					<path id="&lt;Path&gt;" class="shp13" d="M677.51 1057.73L646.45 1057.73L646.45 1073.16L677.51 1073.16L677.51 1057.73Z" />
					<path id="&lt;Path&gt;" class="shp13" d="M979.76 1057.73L948.71 1057.73L948.71 1073.16L979.76 1073.16L979.76 1057.73Z" />
					<path id="&lt;Path&gt;" class="shp2" d="M677.51 968.15L646.45 968.15L646.45 954.25L677.51 954.25L677.51 968.15Z" />
					<path id="&lt;Path&gt;" class="shp13" d="M677.51 968.15L670.46 968.15L670.46 954.25L677.51 954.25L677.51 968.15Z" />
					<path id="&lt;Path&gt;" class="shp2" d="M979.76 968.15L948.71 968.15L948.71 954.25L979.76 954.25L979.76 968.15Z" />
					<path id="&lt;Path&gt;" class="shp13" d="M979.76 968.15L970.58 968.15L970.58 954.25L979.76 954.25L979.76 968.15Z" />
					<path id="&lt;Path&gt;" class="shp13" d="M677.51 968.16L646.45 968.16L646.45 966.41L677.51 966.41L677.51 968.16Z" />
					<path id="&lt;Path&gt;" class="shp13" d="M979.76 968.16L948.71 968.16L948.71 966.41L979.76 966.41L979.76 968.16Z" />
					<g id="&lt;Group&gt;">
						<g id="&lt;Group&gt;">
							<path id="&lt;Path&gt;" class="shp4" d="M670.13 968.24L625.69 1057.82L591.61 1057.82L591.61 1045.46L629.91 968.24L670.13 968.24Z" />
							<path id="&lt;Path&gt;" class="shp4" d="M720.51 968.24L676.08 1057.82L716.29 1057.82L760.73 968.24L720.51 968.24Z" />
							<path id="&lt;Path&gt;" class="shp4" d="M851.32 968.24L806.89 1057.82L766.68 1057.82L811.11 968.24L851.32 968.24Z" />
							<path id="&lt;Path&gt;" class="shp4" d="M941.9 968.24L897.49 1057.82L857.28 1057.82L901.71 968.24L941.9 968.24Z" />
							<path id="&lt;Path&gt;" class="shp4" d="M992.31 968.24L947.87 1057.82L988.07 1057.82L1032.2 968.85L992.31 968.24Z" />
						</g>
					</g>
					<g id="&lt;Group&gt;">
						<g id="&lt;Group&gt;">
							<path id="&lt;Path&gt;" class="shp7" d="M670.13 968.24L659.35 989.99L619.11 989.99L629.91 968.24L670.13 968.24Z" />
							<path id="&lt;Path&gt;" class="shp7" d="M760.73 968.24L749.95 989.99L709.73 989.99L720.51 968.24L760.73 968.24Z" />
							<path id="&lt;Path&gt;" class="shp7" d="M851.32 968.24L840.55 989.99L800.33 989.99L811.11 968.24L851.32 968.24Z" />
							<path id="&lt;Path&gt;" class="shp7" d="M941.9 968.24L931.12 989.99L890.93 989.99L901.71 968.24L941.9 968.24Z" />
							<path id="&lt;Path&gt;" class="shp7" d="M1032.2 968.85L1021.7 989.99L981.53 989.99L992.31 968.24L1032.2 968.85Z" />
						</g>
					</g>
					<path id="&lt;Path&gt;" class="shp16" d="M1024.6 1007L603.88 1007L603.88 1051.8L1024.6 1051.8L1024.6 1007Z" />
					<path id="&lt;Path&gt;" class="shp6" d="M688.86 934.81C688.86 919.51 676.46 907.11 661.17 907.11C645.88 907.11 633.48 919.51 633.48 934.81C633.48 950.1 645.88 962.5 661.17 962.5C676.46 962.5 688.86 950.1 688.86 934.81Z" />
					<path id="&lt;Path&gt;" class="shp4" d="M673.72 934.81C673.72 927.87 668.1 922.26 661.17 922.26C654.24 922.26 648.62 927.87 648.62 934.81C648.62 941.74 654.24 947.36 661.17 947.36C668.1 947.36 673.72 941.74 673.72 934.81Z" />
					<path id="&lt;Path&gt;" class="shp6" d="M991.74 934.81C991.74 919.51 979.35 907.11 964.05 907.11C948.76 907.11 936.36 919.51 936.36 934.81C936.36 950.1 948.76 962.5 964.05 962.5C979.35 962.5 991.74 950.1 991.74 934.81Z" />
					<path id="&lt;Path&gt;" class="shp4" d="M976.6 934.81C976.6 927.87 970.98 922.26 964.05 922.26C957.12 922.26 951.5 927.87 951.5 934.81C951.5 941.74 957.12 947.36 964.05 947.36C970.98 947.36 976.6 941.74 976.6 934.81Z" />
				</g>
				<g id="&lt;Group&gt;">
					<path id="&lt;Path&gt;" class="shp6" d="M1199.12 1170.82L1058.8 1170.82L1080.26 1118.79L1080.26 1118.76L1088.89 1097.77L1091.27 1092.02L1095.15 1082.65L1095.94 1080.74L1104.57 1059.75L1106.16 1055.93L1121.45 1018.79C1124.21 1012.09 1133.7 1012.09 1136.46 1018.79L1151.76 1055.93L1153.34 1059.75L1161.97 1080.74L1162.77 1082.65L1166.64 1092.02L1169.02 1097.77L1177.65 1118.76L1177.65 1118.79L1199.12 1170.82Z" />
					<path id="&lt;Path&gt;" class="shp12" d="M1067.99 1148.51L1058.8 1170.82L1199.13 1170.82L1189.94 1148.51L1067.99 1148.51Z" />
					<path id="&lt;Path&gt;" class="shp2" d="M1208.3 1157.48L1047.58 1157.48L1047.58 1180.2L1208.3 1180.2L1208.3 1157.48Z" />
					<path id="&lt;Path&gt;" class="shp13" d="M1173.57 1157.48L1173.57 1180.2L1208.3 1180.2L1208.3 1157.48L1173.57 1157.48Z" />
					<g id="&lt;Group&gt;">
						<path id="&lt;Path&gt;" class="shp12" d="M1193.6 1157.48L1173.75 1157.48L1157.8 1118.81L1157.8 1118.78L1149.17 1097.78L1146.79 1092.03L1142.92 1082.66L1142.12 1080.75L1133.49 1059.76L1131.91 1055.94L1119.05 1024.67L1121.45 1018.8C1124.21 1012.11 1133.7 1012.11 1136.46 1018.8L1151.76 1055.94L1153.34 1059.76L1161.97 1080.75L1162.77 1082.66L1166.64 1092.03L1169.02 1097.78L1177.65 1118.78L1177.65 1118.81L1193.6 1157.48Z" />
						<g id="&lt;Group&gt;">
							<path id="&lt;Path&gt;" class="shp4" d="M1161.97 1080.74L1095.94 1080.74L1104.57 1059.75L1153.34 1059.75L1161.97 1080.74Z" />
							<path id="&lt;Path&gt;" class="shp4" d="M1177.65 1118.76L1177.65 1118.79L1080.26 1118.79L1080.26 1118.76L1088.89 1097.77L1169.02 1097.77L1177.65 1118.76Z" />
							<path id="&lt;Path&gt;" class="shp7" d="M1161.97 1080.74L1142.12 1080.74L1133.49 1059.75L1153.34 1059.75L1161.97 1080.74Z" />
							<path id="&lt;Path&gt;" class="shp7" d="M1177.65 1118.76L1177.65 1118.79L1157.8 1118.79L1157.8 1118.76L1149.17 1097.77L1169.02 1097.77L1177.65 1118.76Z" />
						</g>
					</g>
				</g>
				<g id="&lt;Group&gt;">
					<path id="&lt;Path&gt;" class="shp3" d="M304.67 660.62C315.16 660.62 324.27 653.01 325.69 642.62C325.94 640.76 326.07 638.86 326.07 636.93C326.07 613.8 307.33 595.05 284.2 595.05C283.25 595.05 282.31 595.09 281.38 595.15C279.47 572.35 260.36 554.43 237.06 554.43C212.49 554.43 192.58 574.35 192.58 598.92C192.58 600.01 192.63 601.08 192.71 602.15C185.73 598.26 177.61 596.18 168.96 596.57C146.62 597.6 128.26 615.47 126.68 637.78C126.67 637.96 126.65 638.14 126.64 638.31C125.93 650.45 135.74 660.62 147.89 660.62L304.67 660.62Z" />
					<path id="&lt;Path&gt;" class="shp3" d="M1304.08 693.52C1337.19 693.52 1339.02 643.68 1305.95 642.07C1305.05 642.03 1304.14 642.01 1303.22 642.01C1297.32 642.01 1291.64 642.94 1286.3 644.66C1281.87 617.68 1258.47 597.1 1230.24 597.1C1201.39 597.1 1177.58 618.6 1173.92 646.45C1167.07 643.17 1159.4 641.33 1151.31 641.33C1146.78 641.33 1142.39 641.9 1138.21 642.98C1109.25 650.44 1115.33 693.52 1145.23 693.52L1304.08 693.52Z" />
					<path id="&lt;Path&gt;" class="shp3" d="M906.4 447.97C939.51 447.97 941.34 398.15 908.28 396.54C907.37 396.5 906.47 396.47 905.55 396.47C899.65 396.47 893.97 397.41 888.63 399.12C884.21 372.16 860.81 351.58 832.59 351.58C803.75 351.58 779.94 373.07 776.28 400.91C769.44 397.63 761.78 395.8 753.68 395.8C749.16 395.8 744.77 396.37 740.58 397.45C711.64 404.9 717.71 447.97 747.6 447.97L906.4 447.97Z" />
					<path id="&lt;Path&gt;" class="shp6" d="M458.7 460.69C458.7 416.86 423.17 381.32 379.34 381.32C335.51 381.32 299.97 416.86 299.97 460.69C299.97 504.52 335.51 540.05 379.34 540.05C423.17 540.05 458.7 504.52 458.7 460.69Z" />
					<path id="&lt;Path&gt;" class="shp14" d="M379.99 381.34C401.58 395.52 415.84 419.94 415.84 447.7C415.84 491.53 380.3 527.06 336.47 527.06C336.25 527.06 336.04 527.05 335.82 527.05C348.32 535.26 363.26 540.05 379.34 540.05C423.17 540.05 458.7 504.52 458.7 460.69C458.7 417.08 423.52 381.69 379.99 381.34Z" />
				</g>
			</g>
		</g>
	</g>
</svg>